<mxfile host="app.diagrams.net" modified="2021-11-03T11:22:52.532Z" agent="5.0 (Windows NT 10.0; Win64; x64) AppleWebKit/537.36 (KHTML, like Gecko) Chrome/95.0.4638.69 Safari/537.36" etag="KxdCTPn3vPiwzFLysdq0" version="15.5.9" type="github">
  <diagram id="3stfLY4zRmmWdMFXyWug" name="Page-1">
    <mxGraphModel dx="2180" dy="1173" grid="0" gridSize="10" guides="1" tooltips="1" connect="1" arrows="1" fold="1" page="0" pageScale="1" pageWidth="827" pageHeight="1169" math="0" shadow="0">
      <root>
        <mxCell id="0" />
        <mxCell id="1" parent="0" />
        <mxCell id="ShfDJbwC6_xK56bqqD-K-4" value="" style="edgeStyle=none;curved=1;rounded=0;sketch=1;hachureGap=4;orthogonalLoop=1;jettySize=auto;html=1;fontFamily=Architects Daughter;fontSource=https%3A%2F%2Ffonts.googleapis.com%2Fcss%3Ffamily%3DArchitects%2BDaughter;fontSize=16;endArrow=open;startSize=14;endSize=14;sourcePerimeterSpacing=8;targetPerimeterSpacing=8;" edge="1" parent="1" source="ShfDJbwC6_xK56bqqD-K-1" target="ShfDJbwC6_xK56bqqD-K-2">
          <mxGeometry relative="1" as="geometry" />
        </mxCell>
        <mxCell id="ShfDJbwC6_xK56bqqD-K-1" value="储户" style="html=1;dashed=0;whitespace=wrap;sketch=1;hachureGap=4;pointerEvents=0;fontFamily=Architects Daughter;fontSource=https%3A%2F%2Ffonts.googleapis.com%2Fcss%3Ffamily%3DArchitects%2BDaughter;fontSize=20;" vertex="1" parent="1">
          <mxGeometry x="-163" y="53" width="84" height="77" as="geometry" />
        </mxCell>
        <mxCell id="ShfDJbwC6_xK56bqqD-K-7" value="" style="edgeStyle=none;curved=1;rounded=0;sketch=1;hachureGap=4;orthogonalLoop=1;jettySize=auto;html=1;fontFamily=Architects Daughter;fontSource=https%3A%2F%2Ffonts.googleapis.com%2Fcss%3Ffamily%3DArchitects%2BDaughter;fontSize=16;endArrow=open;startSize=14;endSize=14;sourcePerimeterSpacing=8;targetPerimeterSpacing=8;" edge="1" parent="1" source="ShfDJbwC6_xK56bqqD-K-2" target="ShfDJbwC6_xK56bqqD-K-6">
          <mxGeometry relative="1" as="geometry" />
        </mxCell>
        <mxCell id="ShfDJbwC6_xK56bqqD-K-2" value="1.1&lt;br&gt;键入储蓄系统" style="rounded=1;whiteSpace=wrap;html=1;absoluteArcSize=1;arcSize=14;strokeWidth=2;sketch=1;hachureGap=4;pointerEvents=0;fontFamily=Architects Daughter;fontSource=https%3A%2F%2Ffonts.googleapis.com%2Fcss%3Ffamily%3DArchitects%2BDaughter;fontSize=20;" vertex="1" parent="1">
          <mxGeometry x="150" y="41.5" width="100" height="100" as="geometry" />
        </mxCell>
        <mxCell id="ShfDJbwC6_xK56bqqD-K-5" value="存款单/取款单" style="text;html=1;strokeColor=none;fillColor=none;align=center;verticalAlign=middle;whiteSpace=wrap;rounded=0;sketch=1;hachureGap=4;pointerEvents=0;fontFamily=Architects Daughter;fontSource=https%3A%2F%2Ffonts.googleapis.com%2Fcss%3Ffamily%3DArchitects%2BDaughter;fontSize=20;" vertex="1" parent="1">
          <mxGeometry x="-43" y="53" width="133" height="30" as="geometry" />
        </mxCell>
        <mxCell id="ShfDJbwC6_xK56bqqD-K-17" value="" style="edgeStyle=none;curved=1;rounded=0;sketch=1;hachureGap=4;orthogonalLoop=1;jettySize=auto;html=1;fontFamily=Architects Daughter;fontSource=https%3A%2F%2Ffonts.googleapis.com%2Fcss%3Ffamily%3DArchitects%2BDaughter;fontSize=16;endArrow=open;startSize=14;endSize=14;sourcePerimeterSpacing=8;targetPerimeterSpacing=8;entryX=0.5;entryY=1;entryDx=0;entryDy=0;" edge="1" parent="1" source="ShfDJbwC6_xK56bqqD-K-6" target="ShfDJbwC6_xK56bqqD-K-10">
          <mxGeometry relative="1" as="geometry">
            <mxPoint x="503" y="-51" as="targetPoint" />
          </mxGeometry>
        </mxCell>
        <mxCell id="ShfDJbwC6_xK56bqqD-K-26" value="" style="edgeStyle=none;curved=1;rounded=0;sketch=1;hachureGap=4;orthogonalLoop=1;jettySize=auto;html=1;fontFamily=Architects Daughter;fontSource=https%3A%2F%2Ffonts.googleapis.com%2Fcss%3Ffamily%3DArchitects%2BDaughter;fontSize=16;endArrow=open;startSize=14;endSize=14;sourcePerimeterSpacing=8;targetPerimeterSpacing=8;" edge="1" parent="1" source="ShfDJbwC6_xK56bqqD-K-6" target="ShfDJbwC6_xK56bqqD-K-25">
          <mxGeometry relative="1" as="geometry" />
        </mxCell>
        <mxCell id="ShfDJbwC6_xK56bqqD-K-6" value="1.2&lt;br&gt;判断存取款" style="rhombus;whiteSpace=wrap;html=1;sketch=1;hachureGap=4;pointerEvents=0;fontFamily=Architects Daughter;fontSource=https%3A%2F%2Ffonts.googleapis.com%2Fcss%3Ffamily%3DArchitects%2BDaughter;fontSize=20;" vertex="1" parent="1">
          <mxGeometry x="430.5" y="31" width="145" height="121" as="geometry" />
        </mxCell>
        <mxCell id="ShfDJbwC6_xK56bqqD-K-8" value="存款单/取款单" style="text;html=1;strokeColor=none;fillColor=none;align=center;verticalAlign=middle;whiteSpace=wrap;rounded=0;sketch=1;hachureGap=4;pointerEvents=0;fontFamily=Architects Daughter;fontSource=https%3A%2F%2Ffonts.googleapis.com%2Fcss%3Ffamily%3DArchitects%2BDaughter;fontSize=20;" vertex="1" parent="1">
          <mxGeometry x="274" y="56" width="133" height="30" as="geometry" />
        </mxCell>
        <mxCell id="ShfDJbwC6_xK56bqqD-K-20" value="" style="edgeStyle=none;curved=1;rounded=0;sketch=1;hachureGap=4;orthogonalLoop=1;jettySize=auto;html=1;fontFamily=Architects Daughter;fontSource=https%3A%2F%2Ffonts.googleapis.com%2Fcss%3Ffamily%3DArchitects%2BDaughter;fontSize=16;endArrow=open;startSize=14;endSize=14;sourcePerimeterSpacing=8;targetPerimeterSpacing=8;" edge="1" parent="1" source="ShfDJbwC6_xK56bqqD-K-10" target="ShfDJbwC6_xK56bqqD-K-19">
          <mxGeometry relative="1" as="geometry" />
        </mxCell>
        <mxCell id="ShfDJbwC6_xK56bqqD-K-10" value="D1" style="html=1;dashed=0;whitespace=wrap;shape=mxgraph.dfd.dataStoreID;align=left;spacingLeft=3;points=[[0,0],[0.5,0],[1,0],[0,0.5],[1,0.5],[0,1],[0.5,1],[1,1]];sketch=1;hachureGap=4;pointerEvents=0;fontFamily=Architects Daughter;fontSource=https%3A%2F%2Ffonts.googleapis.com%2Fcss%3Ffamily%3DArchitects%2BDaughter;fontSize=20;" vertex="1" parent="1">
          <mxGeometry x="409.5" y="-112" width="187" height="49" as="geometry" />
        </mxCell>
        <mxCell id="ShfDJbwC6_xK56bqqD-K-14" value="存款信息" style="text;html=1;strokeColor=none;fillColor=none;align=center;verticalAlign=middle;whiteSpace=wrap;rounded=0;sketch=1;hachureGap=4;pointerEvents=0;fontFamily=Architects Daughter;fontSource=https%3A%2F%2Ffonts.googleapis.com%2Fcss%3Ffamily%3DArchitects%2BDaughter;fontSize=20;" vertex="1" parent="1">
          <mxGeometry x="455" y="-103.25" width="104" height="31.5" as="geometry" />
        </mxCell>
        <mxCell id="ShfDJbwC6_xK56bqqD-K-18" value="存款信息" style="text;html=1;strokeColor=none;fillColor=none;align=center;verticalAlign=middle;whiteSpace=wrap;rounded=0;sketch=1;hachureGap=4;pointerEvents=0;fontFamily=Architects Daughter;fontSource=https%3A%2F%2Ffonts.googleapis.com%2Fcss%3Ffamily%3DArchitects%2BDaughter;fontSize=20;" vertex="1" parent="1">
          <mxGeometry x="483" y="-29" width="145" height="30" as="geometry" />
        </mxCell>
        <mxCell id="ShfDJbwC6_xK56bqqD-K-23" value="" style="edgeStyle=none;curved=1;rounded=0;sketch=1;hachureGap=4;orthogonalLoop=1;jettySize=auto;html=1;fontFamily=Architects Daughter;fontSource=https%3A%2F%2Ffonts.googleapis.com%2Fcss%3Ffamily%3DArchitects%2BDaughter;fontSize=16;endArrow=open;startSize=14;endSize=14;sourcePerimeterSpacing=8;targetPerimeterSpacing=8;" edge="1" parent="1" source="ShfDJbwC6_xK56bqqD-K-19" target="ShfDJbwC6_xK56bqqD-K-22">
          <mxGeometry relative="1" as="geometry" />
        </mxCell>
        <mxCell id="ShfDJbwC6_xK56bqqD-K-19" value="3&lt;br&gt;产生存款存单" style="rounded=1;whiteSpace=wrap;html=1;absoluteArcSize=1;arcSize=14;strokeWidth=2;sketch=1;hachureGap=4;pointerEvents=0;fontFamily=Architects Daughter;fontSource=https%3A%2F%2Ffonts.googleapis.com%2Fcss%3Ffamily%3DArchitects%2BDaughter;fontSize=20;" vertex="1" parent="1">
          <mxGeometry x="201" y="-135" width="100" height="95" as="geometry" />
        </mxCell>
        <mxCell id="ShfDJbwC6_xK56bqqD-K-21" value="存款信息" style="text;html=1;strokeColor=none;fillColor=none;align=center;verticalAlign=middle;whiteSpace=wrap;rounded=0;sketch=1;hachureGap=4;pointerEvents=0;fontFamily=Architects Daughter;fontSource=https%3A%2F%2Ffonts.googleapis.com%2Fcss%3Ffamily%3DArchitects%2BDaughter;fontSize=20;" vertex="1" parent="1">
          <mxGeometry x="288" y="-121" width="145" height="30" as="geometry" />
        </mxCell>
        <mxCell id="ShfDJbwC6_xK56bqqD-K-22" value="储户" style="html=1;dashed=0;whitespace=wrap;sketch=1;hachureGap=4;pointerEvents=0;fontFamily=Architects Daughter;fontSource=https%3A%2F%2Ffonts.googleapis.com%2Fcss%3Ffamily%3DArchitects%2BDaughter;fontSize=20;" vertex="1" parent="1">
          <mxGeometry x="-43" y="-126" width="84" height="77" as="geometry" />
        </mxCell>
        <mxCell id="ShfDJbwC6_xK56bqqD-K-24" value="存款存单" style="text;html=1;strokeColor=none;fillColor=none;align=center;verticalAlign=middle;whiteSpace=wrap;rounded=0;sketch=1;hachureGap=4;pointerEvents=0;fontFamily=Architects Daughter;fontSource=https%3A%2F%2Ffonts.googleapis.com%2Fcss%3Ffamily%3DArchitects%2BDaughter;fontSize=20;" vertex="1" parent="1">
          <mxGeometry x="73" y="-119" width="99" height="30" as="geometry" />
        </mxCell>
        <mxCell id="ShfDJbwC6_xK56bqqD-K-31" value="" style="edgeStyle=none;curved=1;rounded=0;sketch=1;hachureGap=4;orthogonalLoop=1;jettySize=auto;html=1;fontFamily=Architects Daughter;fontSource=https%3A%2F%2Ffonts.googleapis.com%2Fcss%3Ffamily%3DArchitects%2BDaughter;fontSize=16;endArrow=open;startSize=14;endSize=14;sourcePerimeterSpacing=8;targetPerimeterSpacing=8;entryX=0.5;entryY=0;entryDx=0;entryDy=0;" edge="1" parent="1" target="ShfDJbwC6_xK56bqqD-K-29">
          <mxGeometry relative="1" as="geometry">
            <mxPoint x="507" y="287" as="sourcePoint" />
          </mxGeometry>
        </mxCell>
        <mxCell id="ShfDJbwC6_xK56bqqD-K-25" value="2.1&lt;br&gt;核对储户密码" style="rounded=1;whiteSpace=wrap;html=1;absoluteArcSize=1;arcSize=14;strokeWidth=2;sketch=1;hachureGap=4;pointerEvents=0;fontFamily=Architects Daughter;fontSource=https%3A%2F%2Ffonts.googleapis.com%2Fcss%3Ffamily%3DArchitects%2BDaughter;fontSize=20;" vertex="1" parent="1">
          <mxGeometry x="451" y="233" width="112" height="78" as="geometry" />
        </mxCell>
        <mxCell id="ShfDJbwC6_xK56bqqD-K-27" value="取款密码和取款信息" style="text;html=1;strokeColor=none;fillColor=none;align=center;verticalAlign=middle;whiteSpace=wrap;rounded=0;sketch=1;hachureGap=4;pointerEvents=0;fontFamily=Architects Daughter;fontSource=https%3A%2F%2Ffonts.googleapis.com%2Fcss%3Ffamily%3DArchitects%2BDaughter;fontSize=20;" vertex="1" parent="1">
          <mxGeometry x="518" y="163" width="114" height="30" as="geometry" />
        </mxCell>
        <mxCell id="ShfDJbwC6_xK56bqqD-K-35" value="" style="edgeStyle=none;curved=1;rounded=0;sketch=1;hachureGap=4;orthogonalLoop=1;jettySize=auto;html=1;fontFamily=Architects Daughter;fontSource=https%3A%2F%2Ffonts.googleapis.com%2Fcss%3Ffamily%3DArchitects%2BDaughter;fontSize=16;endArrow=open;startSize=14;endSize=14;sourcePerimeterSpacing=8;targetPerimeterSpacing=8;" edge="1" parent="1" source="ShfDJbwC6_xK56bqqD-K-29" target="ShfDJbwC6_xK56bqqD-K-33">
          <mxGeometry relative="1" as="geometry" />
        </mxCell>
        <mxCell id="ShfDJbwC6_xK56bqqD-K-29" value="D1" style="html=1;dashed=0;whitespace=wrap;shape=mxgraph.dfd.dataStoreID;align=left;spacingLeft=3;points=[[0,0],[0.5,0],[1,0],[0,0.5],[1,0.5],[0,1],[0.5,1],[1,1]];sketch=1;hachureGap=4;pointerEvents=0;fontFamily=Architects Daughter;fontSource=https%3A%2F%2Ffonts.googleapis.com%2Fcss%3Ffamily%3DArchitects%2BDaughter;fontSize=20;" vertex="1" parent="1">
          <mxGeometry x="413.5" y="384" width="187" height="48" as="geometry" />
        </mxCell>
        <mxCell id="ShfDJbwC6_xK56bqqD-K-30" value="取款信息" style="text;html=1;strokeColor=none;fillColor=none;align=center;verticalAlign=middle;whiteSpace=wrap;rounded=0;sketch=1;hachureGap=4;pointerEvents=0;fontFamily=Architects Daughter;fontSource=https%3A%2F%2Ffonts.googleapis.com%2Fcss%3Ffamily%3DArchitects%2BDaughter;fontSize=20;" vertex="1" parent="1">
          <mxGeometry x="460" y="393" width="112" height="30" as="geometry" />
        </mxCell>
        <mxCell id="ShfDJbwC6_xK56bqqD-K-32" value="取款信息" style="text;html=1;strokeColor=none;fillColor=none;align=center;verticalAlign=middle;whiteSpace=wrap;rounded=0;sketch=1;hachureGap=4;pointerEvents=0;fontFamily=Architects Daughter;fontSource=https%3A%2F%2Ffonts.googleapis.com%2Fcss%3Ffamily%3DArchitects%2BDaughter;fontSize=20;" vertex="1" parent="1">
          <mxGeometry x="513" y="332" width="112" height="30" as="geometry" />
        </mxCell>
        <mxCell id="ShfDJbwC6_xK56bqqD-K-36" value="" style="edgeStyle=none;curved=1;rounded=0;sketch=1;hachureGap=4;orthogonalLoop=1;jettySize=auto;html=1;fontFamily=Architects Daughter;fontSource=https%3A%2F%2Ffonts.googleapis.com%2Fcss%3Ffamily%3DArchitects%2BDaughter;fontSize=16;endArrow=open;startSize=14;endSize=14;sourcePerimeterSpacing=8;targetPerimeterSpacing=8;" edge="1" parent="1" source="ShfDJbwC6_xK56bqqD-K-33" target="ShfDJbwC6_xK56bqqD-K-34">
          <mxGeometry relative="1" as="geometry" />
        </mxCell>
        <mxCell id="ShfDJbwC6_xK56bqqD-K-33" value="2.2&lt;br&gt;计算利息" style="rounded=1;whiteSpace=wrap;html=1;absoluteArcSize=1;arcSize=14;strokeWidth=2;sketch=1;hachureGap=4;pointerEvents=0;fontFamily=Architects Daughter;fontSource=https%3A%2F%2Ffonts.googleapis.com%2Fcss%3Ffamily%3DArchitects%2BDaughter;fontSize=20;" vertex="1" parent="1">
          <mxGeometry x="232" y="358" width="100" height="100" as="geometry" />
        </mxCell>
        <mxCell id="ShfDJbwC6_xK56bqqD-K-39" value="" style="edgeStyle=none;curved=1;rounded=0;sketch=1;hachureGap=4;orthogonalLoop=1;jettySize=auto;html=1;fontFamily=Architects Daughter;fontSource=https%3A%2F%2Ffonts.googleapis.com%2Fcss%3Ffamily%3DArchitects%2BDaughter;fontSize=16;endArrow=open;startSize=14;endSize=14;sourcePerimeterSpacing=8;targetPerimeterSpacing=8;" edge="1" parent="1" source="ShfDJbwC6_xK56bqqD-K-34" target="ShfDJbwC6_xK56bqqD-K-38">
          <mxGeometry relative="1" as="geometry" />
        </mxCell>
        <mxCell id="ShfDJbwC6_xK56bqqD-K-34" value="2.3&lt;br&gt;打印利息清单" style="rounded=1;whiteSpace=wrap;html=1;absoluteArcSize=1;arcSize=14;strokeWidth=2;sketch=1;hachureGap=4;pointerEvents=0;fontFamily=Architects Daughter;fontSource=https%3A%2F%2Ffonts.googleapis.com%2Fcss%3Ffamily%3DArchitects%2BDaughter;fontSize=20;" vertex="1" parent="1">
          <mxGeometry x="50" y="358" width="100" height="100" as="geometry" />
        </mxCell>
        <mxCell id="ShfDJbwC6_xK56bqqD-K-37" value="利息" style="text;html=1;strokeColor=none;fillColor=none;align=center;verticalAlign=middle;whiteSpace=wrap;rounded=0;sketch=1;hachureGap=4;pointerEvents=0;fontFamily=Architects Daughter;fontSource=https%3A%2F%2Ffonts.googleapis.com%2Fcss%3Ffamily%3DArchitects%2BDaughter;fontSize=20;" vertex="1" parent="1">
          <mxGeometry x="161" y="368" width="60" height="30" as="geometry" />
        </mxCell>
        <mxCell id="ShfDJbwC6_xK56bqqD-K-38" value="储户" style="html=1;dashed=0;whitespace=wrap;sketch=1;hachureGap=4;pointerEvents=0;fontFamily=Architects Daughter;fontSource=https%3A%2F%2Ffonts.googleapis.com%2Fcss%3Ffamily%3DArchitects%2BDaughter;fontSize=20;" vertex="1" parent="1">
          <mxGeometry x="-152" y="369.5" width="84" height="77" as="geometry" />
        </mxCell>
        <mxCell id="ShfDJbwC6_xK56bqqD-K-40" value="利息清单" style="text;html=1;strokeColor=none;fillColor=none;align=center;verticalAlign=middle;whiteSpace=wrap;rounded=0;sketch=1;hachureGap=4;pointerEvents=0;fontFamily=Architects Daughter;fontSource=https%3A%2F%2Ffonts.googleapis.com%2Fcss%3Ffamily%3DArchitects%2BDaughter;fontSize=20;" vertex="1" parent="1">
          <mxGeometry x="-52" y="369.5" width="86" height="30" as="geometry" />
        </mxCell>
      </root>
    </mxGraphModel>
  </diagram>
</mxfile>
